<mxfile host="app.diagrams.net" modified="2023-03-17T07:09:11.530Z" agent="5.0 (Windows NT 10.0; Win64; x64) AppleWebKit/537.36 (KHTML, like Gecko) Chrome/110.0.0.0 Safari/537.36 OPR/96.0.0.0 (Edition Yx GX)" etag="QS8VBHP1TtglyUwvatPb" version="21.0.6" type="github">
  <diagram name="Страница 1" id="ezIfJL-Oxr7-KRxQ4rjS">
    <mxGraphModel dx="1393" dy="758" grid="1" gridSize="10" guides="1" tooltips="1" connect="1" arrows="1" fold="1" page="1" pageScale="1" pageWidth="827" pageHeight="1169" math="0" shadow="0">
      <root>
        <mxCell id="0" />
        <mxCell id="1" parent="0" />
        <mxCell id="zjCN0wRXUbvmRcvVo_0E-1" value="Actor" style="shape=umlActor;verticalLabelPosition=bottom;verticalAlign=top;html=1;outlineConnect=0;" parent="1" vertex="1">
          <mxGeometry x="34" y="120" width="60" height="170" as="geometry" />
        </mxCell>
        <mxCell id="D9hG2ziCADkGJW8DOBkr-1" style="rounded=0;orthogonalLoop=1;jettySize=auto;html=1;exitX=1;exitY=0.5;exitDx=0;exitDy=0;edgeStyle=orthogonalEdgeStyle;dashed=1;dashPattern=8 8;entryX=0.75;entryY=0.1;entryDx=0;entryDy=0;entryPerimeter=0;" edge="1" parent="1" source="zjCN0wRXUbvmRcvVo_0E-3" target="zjCN0wRXUbvmRcvVo_0E-32">
          <mxGeometry relative="1" as="geometry">
            <mxPoint x="100" y="430" as="targetPoint" />
            <Array as="points">
              <mxPoint x="364" y="160" />
              <mxPoint x="380" y="160" />
              <mxPoint x="380" y="350" />
              <mxPoint x="130" y="350" />
              <mxPoint x="130" y="390" />
              <mxPoint x="100" y="390" />
              <mxPoint x="100" y="392" />
            </Array>
          </mxGeometry>
        </mxCell>
        <mxCell id="zjCN0wRXUbvmRcvVo_0E-3" value="Регистрация" style="ellipse;whiteSpace=wrap;html=1;" parent="1" vertex="1">
          <mxGeometry x="208" y="140" width="156" height="50" as="geometry" />
        </mxCell>
        <mxCell id="D9hG2ziCADkGJW8DOBkr-2" style="edgeStyle=orthogonalEdgeStyle;rounded=0;orthogonalLoop=1;jettySize=auto;html=1;exitX=1;exitY=0.5;exitDx=0;exitDy=0;dashed=1;dashPattern=8 8;" edge="1" parent="1" source="zjCN0wRXUbvmRcvVo_0E-4" target="zjCN0wRXUbvmRcvVo_0E-32">
          <mxGeometry relative="1" as="geometry">
            <mxPoint x="100" y="460" as="targetPoint" />
            <Array as="points">
              <mxPoint x="358" y="240" />
              <mxPoint x="410" y="240" />
              <mxPoint x="410" y="370" />
              <mxPoint x="160" y="370" />
              <mxPoint x="160" y="410" />
            </Array>
          </mxGeometry>
        </mxCell>
        <mxCell id="zjCN0wRXUbvmRcvVo_0E-4" value="Войти" style="ellipse;whiteSpace=wrap;html=1;" parent="1" vertex="1">
          <mxGeometry x="208" y="220" width="150" height="50" as="geometry" />
        </mxCell>
        <mxCell id="zjCN0wRXUbvmRcvVo_0E-11" value="" style="endArrow=none;html=1;rounded=0;entryX=0.013;entryY=0.66;entryDx=0;entryDy=0;entryPerimeter=0;" parent="1" target="zjCN0wRXUbvmRcvVo_0E-3" edge="1">
          <mxGeometry width="50" height="50" relative="1" as="geometry">
            <mxPoint x="120" y="190" as="sourcePoint" />
            <mxPoint x="344" y="280" as="targetPoint" />
          </mxGeometry>
        </mxCell>
        <mxCell id="zjCN0wRXUbvmRcvVo_0E-19" value="Незарег.пользователь." style="shape=ext;double=1;rounded=0;whiteSpace=wrap;html=1;" parent="1" vertex="1">
          <mxGeometry x="14" y="300" width="156" height="30" as="geometry" />
        </mxCell>
        <mxCell id="D9hG2ziCADkGJW8DOBkr-9" style="edgeStyle=orthogonalEdgeStyle;rounded=0;orthogonalLoop=1;jettySize=auto;html=1;entryX=0;entryY=0.5;entryDx=0;entryDy=0;endArrow=none;endFill=0;" edge="1" parent="1" source="zjCN0wRXUbvmRcvVo_0E-21" target="zjCN0wRXUbvmRcvVo_0E-34">
          <mxGeometry relative="1" as="geometry" />
        </mxCell>
        <mxCell id="D9hG2ziCADkGJW8DOBkr-13" style="rounded=0;orthogonalLoop=1;jettySize=auto;html=1;entryX=0;entryY=0.5;entryDx=0;entryDy=0;endArrow=none;endFill=0;exitX=1;exitY=0.5;exitDx=0;exitDy=0;" edge="1" parent="1" source="zjCN0wRXUbvmRcvVo_0E-21" target="zjCN0wRXUbvmRcvVo_0E-37">
          <mxGeometry relative="1" as="geometry" />
        </mxCell>
        <mxCell id="zjCN0wRXUbvmRcvVo_0E-21" value="Начать игру" style="ellipse;whiteSpace=wrap;html=1;" parent="1" vertex="1">
          <mxGeometry x="214" y="390" width="156" height="50" as="geometry" />
        </mxCell>
        <mxCell id="zjCN0wRXUbvmRcvVo_0E-22" value="Изменить настройки" style="ellipse;whiteSpace=wrap;html=1;" parent="1" vertex="1">
          <mxGeometry x="214" y="460" width="150" height="50" as="geometry" />
        </mxCell>
        <mxCell id="zjCN0wRXUbvmRcvVo_0E-23" value="Выйти" style="ellipse;whiteSpace=wrap;html=1;" parent="1" vertex="1">
          <mxGeometry x="214" y="530" width="150" height="50" as="geometry" />
        </mxCell>
        <mxCell id="zjCN0wRXUbvmRcvVo_0E-32" value="Actor" style="shape=umlActor;verticalLabelPosition=bottom;verticalAlign=top;html=1;outlineConnect=0;" parent="1" vertex="1">
          <mxGeometry x="34" y="375" width="60" height="170" as="geometry" />
        </mxCell>
        <mxCell id="zjCN0wRXUbvmRcvVo_0E-33" value="Зарег.Пользователь" style="shape=ext;double=1;rounded=0;whiteSpace=wrap;html=1;" parent="1" vertex="1">
          <mxGeometry x="34" y="555" width="147" height="30" as="geometry" />
        </mxCell>
        <mxCell id="D9hG2ziCADkGJW8DOBkr-10" style="edgeStyle=orthogonalEdgeStyle;rounded=0;orthogonalLoop=1;jettySize=auto;html=1;exitX=1;exitY=0.5;exitDx=0;exitDy=0;entryX=0;entryY=0.5;entryDx=0;entryDy=0;endArrow=none;endFill=0;" edge="1" parent="1" source="zjCN0wRXUbvmRcvVo_0E-34" target="zjCN0wRXUbvmRcvVo_0E-45">
          <mxGeometry relative="1" as="geometry" />
        </mxCell>
        <mxCell id="D9hG2ziCADkGJW8DOBkr-11" style="rounded=0;orthogonalLoop=1;jettySize=auto;html=1;exitX=1;exitY=0.5;exitDx=0;exitDy=0;entryX=0;entryY=0.5;entryDx=0;entryDy=0;endArrow=none;endFill=0;" edge="1" parent="1" source="zjCN0wRXUbvmRcvVo_0E-34" target="zjCN0wRXUbvmRcvVo_0E-46">
          <mxGeometry relative="1" as="geometry" />
        </mxCell>
        <mxCell id="D9hG2ziCADkGJW8DOBkr-12" style="rounded=0;orthogonalLoop=1;jettySize=auto;html=1;entryX=0;entryY=0.5;entryDx=0;entryDy=0;endArrow=none;endFill=0;exitX=1;exitY=0.5;exitDx=0;exitDy=0;" edge="1" parent="1" source="zjCN0wRXUbvmRcvVo_0E-34" target="zjCN0wRXUbvmRcvVo_0E-48">
          <mxGeometry relative="1" as="geometry" />
        </mxCell>
        <mxCell id="zjCN0wRXUbvmRcvVo_0E-34" value="Создать комнату" style="ellipse;whiteSpace=wrap;html=1;" parent="1" vertex="1">
          <mxGeometry x="414" y="390" width="156" height="50" as="geometry" />
        </mxCell>
        <mxCell id="zjCN0wRXUbvmRcvVo_0E-37" value="Выбрать комнату" style="ellipse;whiteSpace=wrap;html=1;" parent="1" vertex="1">
          <mxGeometry x="418" y="460" width="152" height="50" as="geometry" />
        </mxCell>
        <mxCell id="zjCN0wRXUbvmRcvVo_0E-45" value="Выгнать пользователя" style="ellipse;whiteSpace=wrap;html=1;" parent="1" vertex="1">
          <mxGeometry x="605" y="390" width="156" height="50" as="geometry" />
        </mxCell>
        <mxCell id="zjCN0wRXUbvmRcvVo_0E-46" value="Уст. пароль на комнату" style="ellipse;whiteSpace=wrap;html=1;" parent="1" vertex="1">
          <mxGeometry x="610" y="325" width="142" height="50" as="geometry" />
        </mxCell>
        <mxCell id="zjCN0wRXUbvmRcvVo_0E-48" value="Запустить игру" style="ellipse;whiteSpace=wrap;html=1;" parent="1" vertex="1">
          <mxGeometry x="615" y="460" width="146" height="50" as="geometry" />
        </mxCell>
        <mxCell id="D9hG2ziCADkGJW8DOBkr-3" value="" style="endArrow=none;html=1;rounded=0;entryX=0;entryY=0.5;entryDx=0;entryDy=0;" edge="1" parent="1" target="zjCN0wRXUbvmRcvVo_0E-21">
          <mxGeometry width="50" height="50" relative="1" as="geometry">
            <mxPoint x="120" y="460" as="sourcePoint" />
            <mxPoint x="217" y="413" as="targetPoint" />
          </mxGeometry>
        </mxCell>
        <mxCell id="D9hG2ziCADkGJW8DOBkr-4" value="" style="endArrow=none;html=1;rounded=0;entryX=0;entryY=0.5;entryDx=0;entryDy=0;" edge="1" parent="1" target="zjCN0wRXUbvmRcvVo_0E-22">
          <mxGeometry width="50" height="50" relative="1" as="geometry">
            <mxPoint x="120" y="480" as="sourcePoint" />
            <mxPoint x="227" y="423" as="targetPoint" />
          </mxGeometry>
        </mxCell>
        <mxCell id="D9hG2ziCADkGJW8DOBkr-5" value="" style="endArrow=classic;html=1;rounded=0;entryX=0;entryY=0.5;entryDx=0;entryDy=0;endFill=1;" edge="1" parent="1" target="zjCN0wRXUbvmRcvVo_0E-23">
          <mxGeometry width="50" height="50" relative="1" as="geometry">
            <mxPoint x="120" y="500" as="sourcePoint" />
            <mxPoint x="237" y="433" as="targetPoint" />
          </mxGeometry>
        </mxCell>
        <mxCell id="D9hG2ziCADkGJW8DOBkr-14" value="" style="endArrow=classic;html=1;rounded=0;entryX=0;entryY=0.5;entryDx=0;entryDy=0;endFill=1;" edge="1" parent="1" target="zjCN0wRXUbvmRcvVo_0E-4">
          <mxGeometry width="50" height="50" relative="1" as="geometry">
            <mxPoint x="120" y="230" as="sourcePoint" />
            <mxPoint x="220" y="183" as="targetPoint" />
            <Array as="points" />
          </mxGeometry>
        </mxCell>
      </root>
    </mxGraphModel>
  </diagram>
</mxfile>
